<?xml version="1.0" standalone="no"?>
<!DOCTYPE svg PUBLIC "-//W3C//DTD SVG 20010904//EN"
 "http://www.w3.org/TR/2001/REC-SVG-20010904/DTD/svg10.dtd">
<svg version="1.0" xmlns="http://www.w3.org/2000/svg"
 width="1000.000000pt" height="1000.000000pt" viewBox="0 0 1000.000000 1000.000000"
 preserveAspectRatio="xMidYMid meet">
<metadata>
Created by potrace 1.16, written by Peter Selinger 2001-2019
</metadata>
<g transform="translate(0.000000,1000.000000) scale(0.100000,-0.100000)"
fill="#000000" stroke="none">
<path d="M3585 6040 c-343 -30 -605 -209 -692 -474 -33 -103 -37 -257 -9 -351
65 -217 236 -371 538 -485 207 -77 288 -122 313 -171 24 -46 19 -112 -10 -148
-44 -51 -102 -66 -250 -65 -146 2 -224 18 -378 80 -101 41 -122 44 -147 17
-21 -22 -113 -388 -108 -429 4 -38 49 -67 162 -103 346 -110 717 -97 986 35
77 39 109 62 175 128 127 128 185 269 185 451 0 164 -48 295 -147 405 -98 108
-209 175 -450 271 -232 92 -293 135 -293 208 0 20 7 47 16 59 63 91 320 95
541 8 91 -36 116 -36 138 -2 7 11 37 108 66 213 60 223 60 230 -18 264 -157
67 -422 105 -618 89z m339 -75 c90 -16 272 -70 280 -84 5 -8 -88 -358 -98
-368 -2 -3 -34 7 -69 21 -116 46 -192 60 -337 60 -129 1 -138 0 -193 -27 -74
-37 -111 -88 -111 -156 0 -105 72 -162 341 -270 217 -87 317 -146 405 -240
113 -119 156 -242 145 -414 -15 -251 -174 -445 -442 -537 -221 -76 -612 -63
-856 29 -102 39 -98 22 -48 225 24 98 46 182 50 187 3 6 42 -5 91 -25 255
-102 529 -114 652 -28 52 36 80 93 80 157 -2 119 -81 184 -344 283 -195 73
-311 142 -408 246 -167 176 -183 452 -40 667 89 133 265 237 463 274 98 18
333 18 439 0z"/>
<path d="M1565 6019 c-179 -6 -229 -10 -357 -30 -114 -18 -103 98 -106 -1049
-1 -645 1 -1007 8 -1024 5 -15 20 -30 32 -35 47 -18 289 -34 508 -34 498 1
773 84 940 284 96 115 141 240 142 389 0 186 -74 340 -215 445 -33 25 -67 50
-76 55 -14 8 -13 11 9 26 50 34 130 124 156 176 39 76 54 141 54 234 0 141
-47 254 -144 349 -185 180 -417 232 -951 214z m495 -74 c52 -8 120 -22 150
-31 132 -39 266 -134 328 -232 81 -127 83 -316 5 -449 -35 -60 -131 -145 -204
-182 -48 -24 -57 -32 -43 -37 67 -21 172 -83 222 -129 102 -94 152 -214 152
-365 0 -158 -45 -265 -160 -381 -59 -60 -93 -85 -160 -117 -102 -50 -248 -86
-406 -103 -122 -12 -629 -7 -729 9 l-50 7 -3 991 -2 992 23 6 c22 5 170 23
252 29 128 11 538 6 625 -8z"/>
<path d="M1638 5613 c-17 -4 -18 -24 -18 -235 l0 -231 133 6 c166 8 245 30
310 88 36 31 50 53 63 94 37 129 -37 244 -177 274 -48 11 -276 13 -311 4z
m311 -69 c28 -8 66 -28 83 -43 28 -25 32 -35 35 -92 5 -84 -15 -117 -94 -155
-51 -26 -71 -29 -170 -33 l-113 -3 0 171 0 171 103 0 c64 0 123 -6 156 -16z"/>
<path d="M1620 4542 l0 -281 57 -7 c137 -17 324 16 404 72 139 96 138 326 -1
418 -76 50 -153 68 -312 74 l-148 5 0 -281z m336 193 c63 -19 128 -65 150
-106 12 -24 15 -51 12 -104 -4 -90 -34 -135 -114 -172 -60 -27 -190 -45 -266
-36 l-48 6 0 220 0 220 108 -6 c59 -4 130 -13 158 -22z"/>
<path d="M4580 6007 c-52 -26 -50 11 -47 -1079 l2 -1017 23 -23 c22 -23 26
-23 272 -23 246 0 250 0 272 23 l23 23 0 1029 0 1029 -23 23 c-22 22 -28 23
-260 26 -177 2 -243 -1 -262 -11z m480 -1067 l0 -1010 -230 0 -230 0 0 1010 0
1010 230 0 230 0 0 -1010z"/>
<path d="M6863 6010 c-12 -5 -28 -19 -37 -32 -19 -30 -626 -2016 -626 -2049 0
-14 9 -34 21 -45 19 -17 42 -19 259 -22 192 -3 244 0 273 11 40 17 30 -7 118
309 l54 198 242 0 242 0 30 -97 c16 -54 48 -161 72 -238 23 -77 50 -149 61
-160 17 -19 33 -20 271 -23 271 -3 289 0 315 48 13 23 -12 106 -303 1045 -208
670 -323 1027 -336 1040 -19 19 -34 20 -327 22 -169 1 -317 -2 -329 -7z m932
-1070 l312 -1005 -245 -3 c-135 -1 -249 1 -252 5 -4 5 -40 119 -80 256 l-74
247 -287 0 -288 0 -20 -67 c-11 -38 -43 -152 -72 -255 l-52 -188 -239 0 c-224
0 -240 1 -236 18 3 9 142 464 309 1010 l303 992 305 -2 304 -3 312 -1005z"/>
<path d="M7158 5584 c-3 -5 -22 -79 -42 -164 -19 -85 -65 -260 -101 -389 -36
-129 -64 -236 -62 -238 2 -2 101 -2 219 -1 l214 3 -64 215 c-35 118 -85 298
-111 399 -26 102 -50 180 -53 175z m83 -510 c32 -111 59 -205 59 -208 0 -3
-61 -6 -136 -6 -121 0 -135 2 -130 16 3 9 34 117 68 241 56 203 63 222 71 192
5 -19 35 -125 68 -235z"/>
<path d="M8360 6007 c-52 -26 -50 11 -47 -1079 l2 -1017 23 -23 c22 -23 26
-23 272 -23 246 0 250 0 272 23 l23 23 0 1029 0 1029 -23 23 c-22 22 -28 23
-260 26 -177 2 -243 -1 -262 -11z m480 -1067 l0 -1010 -230 0 -230 0 0 1010 0
1010 230 0 230 0 0 -1010z"/>
<path d="M5330 4927 c-45 -23 -51 -49 -48 -220 l3 -159 28 -24 29 -25 410 3
410 3 19 24 c17 21 19 41 19 188 0 90 -4 173 -10 183 -19 36 -61 40 -454 40
-286 0 -387 -3 -406 -13z m808 -209 l-3 -153 -392 -3 -393 -2 0 155 0 155 395
0 396 0 -3 -152z"/>
</g>
</svg>
